<?xml version="1.0" encoding="UTF-8" standalone="no"?><!DOCTYPE svg PUBLIC "-//W3C//DTD SVG 1.1//EN" "http://www.w3.org/Graphics/SVG/1.1/DTD/svg11.dtd"><svg width="100%" height="100%" viewBox="0 0 1270 1142" version="1.1" xmlns="http://www.w3.org/2000/svg" xmlns:xlink="http://www.w3.org/1999/xlink" xml:space="preserve" xmlns:serif="http://www.serif.com/" style="fill-rule:evenodd;clip-rule:evenodd;stroke-linejoin:round;stroke-miterlimit:2;"><path d="M223,1041.42l-0,-237.75c-0,-78.694 70.827,-142.584 158.065,-142.584l94.84,0c34.895,0 63.226,25.556 63.226,57.034l-0,348.702c-0,41.491 37.343,75.177 83.34,75.177l284.575,0c205.839,0 362.954,-170.747 362.954,-356.424l0,-429.152c0,-185.677 -157.115,-356.424 -362.954,-356.424l-590.546,0c-174.681,0 -316.5,127.928 -316.5,285.5l0,755.921c0,55.511 49.961,100.579 111.5,100.579c61.539,0 111.5,-45.068 111.5,-100.579Zm683.658,-100.579c82.976,0 140.342,-60.768 140.342,-135.617l0,-468.45c0,-74.849 -57.366,-135.617 -140.342,-135.617l-107.934,-0c-28.925,-0 -52.409,21.183 -52.409,47.275l0,645.453c0,25.916 23.325,46.956 52.055,46.956l108.288,0Zm-367.558,-687.365c-0,-28.876 -25.989,-52.319 -58,-52.319l-127.1,-0c-80.028,-0 -135,58.609 -135,130.798c-0,72.189 54.972,130.798 135,130.798l127.1,-0c32.011,-0 58,-23.444 58,-52.32l-0,-156.957Z" style="fill:#f5f5f4;"/></svg>