<svg xmlns="http://www.w3.org/2000/svg" viewBox="0 0 48 48"><linearGradient id="L2MhtfxZoQ1TAcCo2tAg6a" x1="10.047" x2="9.813" y1="18.203" y2="46.81" gradientUnits="userSpaceOnUse"><stop offset=".019" stop-color="#b3b7bd"/><stop offset=".261" stop-color="#e0e0e0"/><stop offset="1" stop-color="#8a929d"/></linearGradient><path fill="url(#L2MhtfxZoQ1TAcCo2tAg6a)" d="M11.487,44H8.513C8.23,44,8,43.77,8,43.487V4.513C8,4.23,8.23,4,8.513,4h2.974	C11.77,4,12,4.23,12,4.513v38.974C12,43.77,11.77,44,11.487,44z"/><linearGradient id="L2MhtfxZoQ1TAcCo2tAg6b" x1="38.047" x2="37.813" y1="18.203" y2="46.81" gradientUnits="userSpaceOnUse"><stop offset=".019" stop-color="#b3b7bd"/><stop offset=".261" stop-color="#e0e0e0"/><stop offset="1" stop-color="#8a929d"/></linearGradient><path fill="url(#L2MhtfxZoQ1TAcCo2tAg6b)" d="M39.487,44h-2.974C36.23,44,36,43.77,36,43.487V4.513C36,4.23,36.23,4,36.513,4h2.974	C39.77,4,40,4.23,40,4.513v38.974C40,43.77,39.77,44,39.487,44z"/><linearGradient id="L2MhtfxZoQ1TAcCo2tAg6c" x1="18.408" x2="28.533" y1=".724" y2="21.14" gradientUnits="userSpaceOnUse"><stop offset="0" stop-color="#fdd835"/><stop offset="1" stop-color="#f9a825"/></linearGradient><path fill="url(#L2MhtfxZoQ1TAcCo2tAg6c)" d="M41.493,17H6.507C6.227,17,6,16.773,6,16.493V7.507C6,7.227,6.227,7,6.507,7h34.987	C41.773,7,42,7.227,42,7.507v8.987C42,16.773,41.773,17,41.493,17z"/><linearGradient id="L2MhtfxZoQ1TAcCo2tAg6d" x1="34.166" x2="37.486" y1="8.302" y2="14.997" gradientUnits="userSpaceOnUse"><stop offset="0" stop-color="#666"/><stop offset=".999" stop-color="#171714"/></linearGradient><polygon fill="url(#L2MhtfxZoQ1TAcCo2tAg6d)" points="31,17 35,17 41,7 37,7"/><linearGradient id="L2MhtfxZoQ1TAcCo2tAg6e" x1="39.779" x2="41.551" y1="13.046" y2="16.62" gradientUnits="userSpaceOnUse"><stop offset="0" stop-color="#666"/><stop offset=".999" stop-color="#171714"/></linearGradient><path fill="url(#L2MhtfxZoQ1TAcCo2tAg6e)" d="M39,17h2.493C41.773,17,42,16.773,42,16.493V12L39,17z"/><linearGradient id="L2MhtfxZoQ1TAcCo2tAg6f" x1="26.166" x2="29.486" y1="8.302" y2="14.997" gradientUnits="userSpaceOnUse"><stop offset="0" stop-color="#666"/><stop offset=".999" stop-color="#171714"/></linearGradient><polygon fill="url(#L2MhtfxZoQ1TAcCo2tAg6f)" points="23,17 27,17 33,7 29,7"/><linearGradient id="L2MhtfxZoQ1TAcCo2tAg6g" x1="6.263" x2="8.036" y1="7.006" y2="10.58" gradientUnits="userSpaceOnUse"><stop offset="0" stop-color="#666"/><stop offset=".999" stop-color="#171714"/></linearGradient><path fill="url(#L2MhtfxZoQ1TAcCo2tAg6g)" d="M6,7.507V12l3-5H6.507C6.227,7,6,7.227,6,7.507z"/><linearGradient id="L2MhtfxZoQ1TAcCo2tAg6h" x1="18.166" x2="21.486" y1="8.302" y2="14.997" gradientUnits="userSpaceOnUse"><stop offset="0" stop-color="#666"/><stop offset=".999" stop-color="#171714"/></linearGradient><polygon fill="url(#L2MhtfxZoQ1TAcCo2tAg6h)" points="15,17 19,17 25,7 21,7"/><linearGradient id="L2MhtfxZoQ1TAcCo2tAg6i" x1="10.166" x2="13.486" y1="8.302" y2="14.997" gradientUnits="userSpaceOnUse"><stop offset="0" stop-color="#666"/><stop offset=".999" stop-color="#171714"/></linearGradient><polygon fill="url(#L2MhtfxZoQ1TAcCo2tAg6i)" points="7,17 11,17 17,7 13,7"/><linearGradient id="L2MhtfxZoQ1TAcCo2tAg6j" x1="18.408" x2="28.533" y1="15.724" y2="36.14" gradientUnits="userSpaceOnUse"><stop offset="0" stop-color="#fdd835"/><stop offset="1" stop-color="#f9a825"/></linearGradient><path fill="url(#L2MhtfxZoQ1TAcCo2tAg6j)" d="M41.493,32H6.507C6.227,32,6,31.773,6,31.493v-8.987C6,22.227,6.227,22,6.507,22h34.987	C41.773,22,42,22.227,42,22.507v8.987C42,31.773,41.773,32,41.493,32z"/><linearGradient id="L2MhtfxZoQ1TAcCo2tAg6k" x1="34.166" x2="37.486" y1="23.302" y2="29.997" gradientUnits="userSpaceOnUse"><stop offset="0" stop-color="#666"/><stop offset=".999" stop-color="#171714"/></linearGradient><polygon fill="url(#L2MhtfxZoQ1TAcCo2tAg6k)" points="31,32 35,32 41,22 37,22"/><linearGradient id="L2MhtfxZoQ1TAcCo2tAg6l" x1="39.779" x2="41.551" y1="28.046" y2="31.62" gradientUnits="userSpaceOnUse"><stop offset="0" stop-color="#666"/><stop offset=".999" stop-color="#171714"/></linearGradient><path fill="url(#L2MhtfxZoQ1TAcCo2tAg6l)" d="M39,32h2.493C41.773,32,42,31.773,42,31.493V27L39,32z"/><linearGradient id="L2MhtfxZoQ1TAcCo2tAg6m" x1="26.166" x2="29.486" y1="23.302" y2="29.997" gradientUnits="userSpaceOnUse"><stop offset="0" stop-color="#666"/><stop offset=".999" stop-color="#171714"/></linearGradient><polygon fill="url(#L2MhtfxZoQ1TAcCo2tAg6m)" points="23,32 27,32 33,22 29,22"/><linearGradient id="L2MhtfxZoQ1TAcCo2tAg6n" x1="6.263" x2="8.036" y1="22.006" y2="25.58" gradientUnits="userSpaceOnUse"><stop offset="0" stop-color="#666"/><stop offset=".999" stop-color="#171714"/></linearGradient><path fill="url(#L2MhtfxZoQ1TAcCo2tAg6n)" d="M6,22.507V27l3-5H6.507C6.227,22,6,22.227,6,22.507z"/><linearGradient id="L2MhtfxZoQ1TAcCo2tAg6o" x1="18.166" x2="21.486" y1="23.302" y2="29.997" gradientUnits="userSpaceOnUse"><stop offset="0" stop-color="#666"/><stop offset=".999" stop-color="#171714"/></linearGradient><polygon fill="url(#L2MhtfxZoQ1TAcCo2tAg6o)" points="15,32 19,32 25,22 21,22"/><linearGradient id="L2MhtfxZoQ1TAcCo2tAg6p" x1="10.166" x2="13.486" y1="23.302" y2="29.997" gradientUnits="userSpaceOnUse"><stop offset="0" stop-color="#666"/><stop offset=".999" stop-color="#171714"/></linearGradient><polygon fill="url(#L2MhtfxZoQ1TAcCo2tAg6p)" points="7,32 11,32 17,22 13,22"/><linearGradient id="L2MhtfxZoQ1TAcCo2tAg6q" x1="10" x2="10" y1="19.583" y2="14.129" gradientUnits="userSpaceOnUse"><stop offset=".007" stop-opacity="0"/><stop offset=".893" stop-opacity=".8"/></linearGradient><rect width="4" height="3" x="8" y="17" fill="url(#L2MhtfxZoQ1TAcCo2tAg6q)"/><linearGradient id="L2MhtfxZoQ1TAcCo2tAg6r" x1="10" x2="10" y1="34.583" y2="29.128" gradientUnits="userSpaceOnUse"><stop offset=".007" stop-opacity="0"/><stop offset=".893" stop-opacity=".8"/></linearGradient><rect width="4" height="3" x="8" y="32" fill="url(#L2MhtfxZoQ1TAcCo2tAg6r)"/><linearGradient id="L2MhtfxZoQ1TAcCo2tAg6s" x1="38" x2="38" y1="19.583" y2="14.129" gradientUnits="userSpaceOnUse"><stop offset=".007" stop-opacity="0"/><stop offset=".893" stop-opacity=".8"/></linearGradient><rect width="4" height="3" x="36" y="17" fill="url(#L2MhtfxZoQ1TAcCo2tAg6s)"/><linearGradient id="L2MhtfxZoQ1TAcCo2tAg6t" x1="38" x2="38" y1="34.583" y2="29.128" gradientUnits="userSpaceOnUse"><stop offset=".007" stop-opacity="0"/><stop offset=".893" stop-opacity=".8"/></linearGradient><rect width="4" height="3" x="36" y="32" fill="url(#L2MhtfxZoQ1TAcCo2tAg6t)"/><radialGradient id="L2MhtfxZoQ1TAcCo2tAg6u" cx="9.906" cy="11.813" r="1.032" gradientUnits="userSpaceOnUse"><stop offset="0" stop-color="#fff"/><stop offset="1" stop-color="#8a929d"/></radialGradient><circle cx="10" cy="12" r="1" fill="url(#L2MhtfxZoQ1TAcCo2tAg6u)"/><radialGradient id="L2MhtfxZoQ1TAcCo2tAg6v" cx="9.906" cy="26.813" r="1.032" gradientUnits="userSpaceOnUse"><stop offset="0" stop-color="#fff"/><stop offset="1" stop-color="#8a929d"/></radialGradient><circle cx="10" cy="27" r="1" fill="url(#L2MhtfxZoQ1TAcCo2tAg6v)"/><radialGradient id="L2MhtfxZoQ1TAcCo2tAg6w" cx="37.906" cy="11.813" r="1.032" gradientUnits="userSpaceOnUse"><stop offset="0" stop-color="#fff"/><stop offset="1" stop-color="#8a929d"/></radialGradient><circle cx="38" cy="12" r="1" fill="url(#L2MhtfxZoQ1TAcCo2tAg6w)"/><radialGradient id="L2MhtfxZoQ1TAcCo2tAg6x" cx="37.906" cy="26.813" r="1.032" gradientUnits="userSpaceOnUse"><stop offset="0" stop-color="#fff"/><stop offset="1" stop-color="#8a929d"/></radialGradient><circle cx="38" cy="27" r="1" fill="url(#L2MhtfxZoQ1TAcCo2tAg6x)"/></svg>