<?xml version="1.0" standalone="no"?>
<!DOCTYPE svg PUBLIC "-//W3C//DTD SVG 20010904//EN"
 "http://www.w3.org/TR/2001/REC-SVG-20010904/DTD/svg10.dtd">
<svg version="1.0" xmlns="http://www.w3.org/2000/svg"
 width="1440.000000pt" height="1440.000000pt" viewBox="0 0 1440.000000 1440.000000"
 preserveAspectRatio="xMidYMid meet">
<metadata>
Created by potrace 1.14, written by Peter Selinger 2001-2017
</metadata>
<g transform="translate(0.000000,1440.000000) scale(0.100000,-0.100000)"
fill="#000000" stroke="none">
<path d="M4465 11793 c-412 -22 -853 -153 -1215 -361 -166 -95 -362 -246 -509
-392 -185 -184 -316 -364 -430 -590 -105 -207 -163 -379 -204 -605 l-22 -120
0 -3230 0 -3230 28 -80 c37 -105 106 -219 184 -304 35 -39 63 -78 63 -90 0
-43 45 -118 110 -182 77 -76 207 -146 335 -180 102 -27 293 -36 406 -19 381
55 705 320 826 675 51 151 53 185 53 1090 1 949 7 1142 44 1286 106 418 448
702 933 774 79 12 231 19 563 24 492 9 534 14 590 66 20 19 29 22 43 14 29
-17 104 -125 129 -187 l23 -57 5 -1505 5 -1505 22 -59 c31 -81 77 -154 135
-215 29 -30 48 -59 48 -73 0 -109 134 -245 295 -298 149 -50 155 -50 1458 -50
1299 0 1359 2 1622 51 1206 223 2202 1193 2450 2386 62 298 60 216 60 2278 0
2017 1 1978 -51 2249 -91 472 -313 920 -610 1235 -84 89 -193 178 -230 187
-13 3 -76 60 -141 126 -482 490 -1048 775 -1740 875 -109 15 -318 17 -2668 18
-1402 1 -2577 0 -2610 -2z m1845 -1779 c52 -57 89 -135 101 -217 11 -82 11
-1273 -1 -1356 -23 -161 -138 -286 -319 -349 -39 -13 -127 -16 -581 -19 -333
-3 -584 0 -665 6 -278 23 -492 114 -672 285 -69 65 -72 69 -58 89 21 30 19
106 -5 223 -48 232 -49 423 -4 604 22 91 113 274 173 346 95 116 247 217 406
269 159 52 218 56 820 64 616 9 644 12 715 71 19 16 38 29 41 29 4 1 25 -20
49 -45z m3235 -65 c77 -5 220 -26 318 -45 204 -39 214 -40 246 -18 22 16 24
15 78 -37 129 -126 230 -299 281 -484 l27 -100 0 -2065 0 -2065 -27 -96 c-111
-404 -402 -685 -810 -782 -91 -21 -109 -22 -678 -22 l-585 0 -71 33 c-40 19
-88 51 -108 71 l-37 38 33 34 c32 34 55 90 80 195 8 36 13 703 17 2564 6 2386
7 2517 24 2560 55 139 153 204 332 219 138 12 723 12 880 0z"/>
</g>
</svg>
